<svg xmlns="http://www.w3.org/2000/svg" width="73" height="59" fill="none"><path fill="#fff" d="M50.138 44.534c-1.377 0-2.147.468-2.58 1.579L42.858 58.16h1.868l1.983-5.088h5.459l-.645-1.736h-4.13l1.684-4.328c.203-.467.569-.711 1.06-.711.49 0 .866.253 1.04.731l4.149 11.142h1.887l-4.525-12.058c-.414-1.102-1.175-1.57-2.542-1.57l-.01-.01ZM45.034 44.787H22.67c-2.59 0-3.966 1.277-3.966 3.675 0 2.398 1.415 3.704 4.217 3.704h3.254c2.243 0 2.58 1.346 2.58 2.155 0 1.345-.867 2.154-2.31 2.154h-9.522l.635 1.696h8.8c2.657 0 4.072-1.306 4.072-3.763 0-2.456-1.415-3.782-4.313-3.782h-3.273c-2.138 0-2.455-1.296-2.455-2.066 0-1.297.828-2.067 2.204-2.067h14.354v11.688h1.695V46.493h5.738l.664-1.696-.01-.01ZM69.653 52.654l.481-.137c2.484-.711 2.686-3.148 2.686-3.88 0-2.407-1.54-3.85-4.11-3.85H55.076l.636 1.697h13.083c1.415 0 2.33.886 2.33 2.26 0 1.093-.607 2.36-2.33 2.36h-5.45c-1.337 0-1.809.487-1.809 1.852v5.215h1.675v-4.728c0-.458.289-.75.741-.75h3.87l3.187 5.478h1.82l-3.168-5.517h-.01ZM7.778 44.534c-1.377 0-2.147.468-2.58 1.579L.5 58.16h1.868l1.983-5.088h5.536l-.646-1.736H5.025L6.71 47c.202-.468.568-.712 1.059-.712.49 0 .866.254 1.04.731l1.607 4.319.645 1.735 1.897 5.088h1.886L10.32 46.103c-.414-1.102-1.175-1.57-2.542-1.57Z"/><path fill="url(#a)" d="M36.032 8.952a.517.517 0 0 1 .426-.224c.172 0 .328.08.426.221l2.33 3.166c1.454.03 2.855.1 4.179.21L38.006.984A1.709 1.709 0 0 0 36.446 0h-.003c-.675 0-1.273.381-1.56.988l-5.44 11.559a71.45 71.45 0 0 1 4.212-.341l2.377-3.254Z"/><path fill="url(#b)" d="m42.068 18.834 9.175 12.474-5.752-12.11a52.373 52.373 0 0 0-3.426-.364h.003Z"/><path fill="url(#c)" d="M27.468 19.203 21.746 31.36l9.143-12.522a52.582 52.582 0 0 0-3.421.366v-.002Z"/><path fill="url(#d)" d="M49.327 14.73c-1.662-.402-3.683-.703-5.932-.892a67.223 67.223 0 0 0-4.179-.21 77.207 77.207 0 0 0-5.56.09 71.46 71.46 0 0 0-4.213.341c-1.766.198-3.415.457-4.86.773-4.123.896-6.513 1.422-6.513 3.229 0 1.367 2.047 1.924 5.074 2.712-1.51-.547-1.913-1.041-1.913-1.247 0-.008.035-.793 3.133-1.628 1.034-.279 2.244-.517 3.607-.713a52.407 52.407 0 0 1 3.42-.366 68.448 68.448 0 0 1 5.1-.188c1.74 0 3.444.063 5.067.186a52.794 52.794 0 0 1 3.425.363c1.417.2 2.667.45 3.726.74 3.012.828 3.047 1.596 3.047 1.603 0 .206-.229.703-1.739 1.247 3.025-.787 4.9-1.344 4.9-2.712 0-1.936-2.14-2.496-5.59-3.331v.002Z"/><path fill="url(#e)" d="M36.493 27.675c4.492 0 8.555 1.39 11.484 3.633-1.893-3.392-6.322-5.773-11.484-5.773s-9.591 2.38-11.484 5.773c2.929-2.243 6.992-3.633 11.484-3.633Z"/><defs><linearGradient id="a" x1="29.295" x2="43.017" y1="7.165" y2="6.977" gradientUnits="userSpaceOnUse"><stop stop-color="#57FFD7"/><stop offset="1" stop-color="#4EEEC8"/></linearGradient><linearGradient id="b" x1="41.968" x2="50.997" y1="25.957" y2="25.876" gradientUnits="userSpaceOnUse"><stop stop-color="#57FFD7"/><stop offset="1" stop-color="#4EEEC8"/></linearGradient><linearGradient id="c" x1="21.649" x2="30.643" y1="25.99" y2="25.909" gradientUnits="userSpaceOnUse"><stop stop-color="#57FFD7"/><stop offset="1" stop-color="#4EEEC8"/></linearGradient><linearGradient id="d" x1="17.679" x2="53.787" y1="17.702" y2="15.416" gradientUnits="userSpaceOnUse"><stop stop-color="#57FFD7"/><stop offset="1" stop-color="#4EEEC8"/></linearGradient><linearGradient id="e" x1="24.765" x2="47.309" y1="28.831" y2="27.728" gradientUnits="userSpaceOnUse"><stop stop-color="#57FFD7"/><stop offset="1" stop-color="#4EEEC8"/></linearGradient></defs></svg>