<svg width="367" height="76" viewBox="0 0 367 76" fill="none" xmlns="http://www.w3.org/2000/svg">
<path d="M285.444 13.999C280.61 13.999 277.905 15.5761 276.384 19.3217L259.886 59.9317H266.444L273.409 42.7809H292.578L290.313 36.9325H275.809L281.726 22.3444C282.436 20.7674 283.72 19.9459 285.444 19.9459C287.169 19.9459 288.487 20.8002 289.096 22.4101L303.667 59.9645H310.293L294.404 19.3217C292.95 15.609 290.279 14.0319 285.478 14.0319L285.444 13.999Z" fill="white"/>
<path d="M267.522 14.8549H188.987C179.893 14.8549 175.058 19.159 175.058 27.2416C175.058 35.3241 180.028 39.7268 189.866 39.7268H201.293C209.17 39.7268 210.354 44.261 210.354 46.988C210.354 51.5221 207.311 54.2492 202.24 54.2492H168.804L171.035 59.9661H201.935C211.266 59.9661 216.236 55.5634 216.236 47.2837C216.236 39.004 211.266 34.5356 201.09 34.5356H189.596C182.09 34.5356 180.975 30.1657 180.975 27.5701C180.975 23.2003 183.882 20.6047 188.717 20.6047H239.124V59.999H245.074V20.6047H265.224L267.556 14.8877L267.522 14.8549Z" fill="white"/>
<path d="M353.974 41.3696L355.664 40.9097C364.387 38.5112 365.097 30.2972 365.097 27.833C365.097 19.7175 359.688 14.8549 350.661 14.8549H302.789L305.02 20.5718H350.965C355.935 20.5718 359.147 23.5617 359.147 28.1944C359.147 31.8742 357.017 36.1455 350.965 36.1455H331.83C327.131 36.1455 325.474 37.7883 325.474 42.3882V59.9661H331.357V44.031C331.357 42.4867 332.371 41.5011 333.96 41.5011H347.551L358.741 59.9661H365.131L354.008 41.3696H353.974Z" fill="white"/>
<path d="M136.69 13.999C131.855 13.999 129.15 15.5761 127.629 19.3217L111.131 59.9317H117.69L124.654 42.7809H144.093L141.828 36.9325H127.021L132.937 22.3116C133.647 20.7345 134.932 19.9131 136.656 19.9131C138.38 19.9131 139.698 20.7674 140.307 22.3773L145.953 36.9325L148.218 42.7809L154.878 59.9317H161.505L145.615 19.2888C144.161 15.5761 141.49 13.999 136.69 13.999Z" fill="white"/>
<path d="M42.805 21.4935C43.0365 21.162 43.4046 20.9666 43.8083 20.9666C44.212 20.9666 44.5801 21.1561 44.8116 21.4876L50.2973 28.9586C53.7228 29.0296 57.0237 29.1954 60.1405 29.4559L47.4535 2.69172C46.7767 1.25909 45.3697 0.371094 43.7786 0.371094H43.7727C42.1816 0.371094 40.7746 1.27093 40.0978 2.70356L27.2861 29.9768C30.4564 29.6216 33.7929 29.3493 37.2066 29.1717L42.805 21.4935Z" fill="url(#paint0_linear_1_5246)"/>
<path d="M57.0196 44.8125L78.6296 74.2466L65.0818 45.6709C64.405 45.5762 63.7163 45.4815 63.0099 45.3986C61.0982 45.1618 59.0856 44.9664 57.0137 44.8125H57.0196Z" fill="url(#paint1_linear_1_5246)"/>
<path d="M22.6338 45.6831L9.15723 74.3713L30.6901 44.8247C28.7012 44.9727 26.7658 45.1621 24.9195 45.3871C24.1358 45.4818 23.3759 45.5825 22.6338 45.689V45.6831Z" fill="url(#paint2_linear_1_5246)"/>
<path d="M74.1166 35.1266C70.2042 34.1794 65.4429 33.469 60.1473 33.025C57.0304 32.7645 53.7296 32.5987 50.304 32.5277C49.1345 32.504 47.9471 32.4922 46.7479 32.4922C43.5479 32.4922 40.342 32.5751 37.2074 32.7408C33.7937 32.9184 30.4572 33.1907 27.2869 33.5459C23.1252 34.0136 19.2426 34.6234 15.8408 35.3693C6.12811 37.4827 0.5 38.7259 0.5 42.9883C0.5 46.2147 5.3207 47.5289 12.4508 49.3878C8.89467 48.0972 7.94478 46.931 7.94478 46.4455C7.94478 46.4278 8.02789 44.5748 15.3242 42.6035C17.7583 41.9464 20.608 41.384 23.8198 40.9222C24.5619 40.8157 25.3278 40.715 26.1055 40.6203C27.9519 40.3953 29.8813 40.2059 31.8761 40.0579C35.7232 39.7678 39.7899 39.6139 43.8863 39.6139C47.9827 39.6139 51.996 39.7619 55.8193 40.052C57.8913 40.2059 59.8979 40.4013 61.8155 40.6381C62.522 40.7269 63.2107 40.8157 63.8875 40.9104C67.224 41.384 70.1686 41.9701 72.6621 42.6568C79.7566 44.6104 79.8397 46.4219 79.8397 46.4396C79.8397 46.9251 79.2995 48.0972 75.7433 49.3818C82.8675 47.523 87.2845 46.2087 87.2845 42.9824C87.2845 38.4122 82.2441 37.092 74.1166 35.1207V35.1266Z" fill="url(#paint3_linear_1_5246)"/>
<path d="M43.8909 65.6738C54.4704 65.6738 64.0405 68.9534 70.9391 74.2459C66.4806 66.2421 56.0496 60.624 43.8909 60.624C31.7323 60.624 21.3013 66.2421 16.8428 74.2459C23.7414 68.9534 33.3115 65.6738 43.8909 65.6738Z" fill="url(#paint4_linear_1_5246)"/>
<defs>
<linearGradient id="paint0_linear_1_5246" x1="26.9374" y1="17.2782" x2="59.2554" y2="16.8369" gradientUnits="userSpaceOnUse">
<stop stop-color="#57FFD7"/>
<stop offset="1" stop-color="#4EEEC8"/>
</linearGradient>
<linearGradient id="paint1_linear_1_5246" x1="56.7842" y1="61.6215" x2="78.0495" y2="61.4294" gradientUnits="userSpaceOnUse">
<stop stop-color="#57FFD7"/>
<stop offset="1" stop-color="#4EEEC8"/>
</linearGradient>
<linearGradient id="paint2_linear_1_5246" x1="8.92866" y1="61.698" x2="30.1122" y2="61.508" gradientUnits="userSpaceOnUse">
<stop stop-color="#57FFD7"/>
<stop offset="1" stop-color="#4EEEC8"/>
</linearGradient>
<linearGradient id="paint3_linear_1_5246" x1="-0.421212" y1="42.1408" x2="84.6227" y2="36.7667" gradientUnits="userSpaceOnUse">
<stop stop-color="#57FFD7"/>
<stop offset="1" stop-color="#4EEEC8"/>
</linearGradient>
<linearGradient id="paint4_linear_1_5246" x1="16.2685" y1="68.4031" x2="69.3648" y2="65.809" gradientUnits="userSpaceOnUse">
<stop stop-color="#57FFD7"/>
<stop offset="1" stop-color="#4EEEC8"/>
</linearGradient>
</defs>
</svg>
