<svg width="181" height="180" viewBox="0 0 181 180" fill="none" xmlns="http://www.w3.org/2000/svg">
<path d="M89.0778 68.8849C89.382 68.4472 89.8656 68.1893 90.3959 68.1893C90.9263 68.1893 91.4099 68.4394 91.7141 68.8771L98.921 78.7399C103.421 78.8337 107.758 79.0525 111.853 79.3964L95.1849 44.0636C94.2958 42.1723 92.4473 41 90.3569 41H90.3491C88.2588 41 86.4103 42.1879 85.5211 44.0792L68.6895 80.0842C72.8545 79.6152 77.2379 79.2557 81.7227 79.0213L89.0778 68.8849Z" fill="url(#paint0_linear_1_3881)"/>
<path d="M107.754 99.6694L136.145 138.527L118.346 100.803C117.457 100.678 116.552 100.553 115.624 100.443C113.112 100.131 110.468 99.8726 107.746 99.6694H107.754Z" fill="url(#paint1_linear_1_3881)"/>
<path d="M62.5773 100.819L44.8721 138.692L73.1615 99.6855C70.5486 99.8809 68.0059 100.131 65.5802 100.428C64.5506 100.553 63.5523 100.686 62.5773 100.827V100.819Z" fill="url(#paint2_linear_1_3881)"/>
<path d="M130.216 86.8836C125.076 85.6331 118.821 84.6953 111.863 84.1091C107.768 83.7653 103.432 83.5464 98.9314 83.4527C97.3949 83.4214 95.835 83.4058 94.2594 83.4058C90.0554 83.4058 85.8436 83.5152 81.7254 83.734C77.2406 83.9685 72.8571 84.328 68.6921 84.7969C63.2245 85.4143 58.1236 86.2193 53.6543 87.204C40.8941 89.994 33.5 91.6352 33.5 97.2622C33.5 101.522 39.8333 103.257 49.2007 105.711C44.5287 104.007 43.2808 102.467 43.2808 101.826C43.2808 101.803 43.39 99.3567 52.9758 96.7542C56.1736 95.8867 59.9175 95.1443 64.1371 94.5347C65.1121 94.394 66.1182 94.2612 67.14 94.1361C69.5657 93.8391 72.1006 93.5891 74.7213 93.3937C79.7754 93.0107 85.1182 92.8075 90.5 92.8075C95.8818 92.8075 101.154 93.0029 106.177 93.3859C108.899 93.5891 111.536 93.847 114.055 94.1596C114.983 94.2768 115.888 94.394 116.777 94.5191C121.16 95.1443 125.029 95.918 128.305 96.8246C137.626 99.4036 137.735 101.795 137.735 101.819C137.735 102.459 137.025 104.007 132.353 105.703C141.713 103.249 147.516 101.514 147.516 97.2544C147.516 91.221 140.894 89.4782 130.216 86.8757V86.8836Z" fill="url(#paint3_linear_1_3881)"/>
<path d="M90.506 127.21C104.405 127.21 116.978 131.54 126.041 138.527C120.184 127.961 106.48 120.544 90.506 120.544C74.5323 120.544 60.8283 127.961 54.9707 138.527C64.0339 131.54 76.607 127.21 90.506 127.21Z" fill="url(#paint4_linear_1_3881)"/>
<defs>
<linearGradient id="paint0_linear_1_3881" x1="68.2313" y1="63.32" x2="110.69" y2="62.7431" gradientUnits="userSpaceOnUse">
<stop stop-color="#57FFD7"/>
<stop offset="1" stop-color="#4EEEC8"/>
</linearGradient>
<linearGradient id="paint1_linear_1_3881" x1="107.445" y1="121.86" x2="135.383" y2="121.609" gradientUnits="userSpaceOnUse">
<stop stop-color="#57FFD7"/>
<stop offset="1" stop-color="#4EEEC8"/>
</linearGradient>
<linearGradient id="paint2_linear_1_3881" x1="44.5718" y1="121.961" x2="72.4023" y2="121.713" gradientUnits="userSpaceOnUse">
<stop stop-color="#57FFD7"/>
<stop offset="1" stop-color="#4EEEC8"/>
</linearGradient>
<linearGradient id="paint3_linear_1_3881" x1="32.2897" y1="96.1434" x2="144.023" y2="89.1168" gradientUnits="userSpaceOnUse">
<stop stop-color="#57FFD7"/>
<stop offset="1" stop-color="#4EEEC8"/>
</linearGradient>
<linearGradient id="paint4_linear_1_3881" x1="54.2163" y1="130.814" x2="123.975" y2="127.422" gradientUnits="userSpaceOnUse">
<stop stop-color="#57FFD7"/>
<stop offset="1" stop-color="#4EEEC8"/>
</linearGradient>
</defs>
</svg>
