<svg width="255" height="46" viewBox="0 0 255 46" fill="none" xmlns="http://www.w3.org/2000/svg">
<path d="M174.444 -0.000976562C169.61 -0.000976562 166.905 1.57612 165.384 5.3217L148.886 45.9317H155.444L162.409 28.7809H181.578L179.313 22.9325H164.809L170.726 8.34445C171.436 6.76736 172.72 5.94595 174.444 5.94595C176.169 5.94595 177.487 6.8002 178.096 8.41015L192.667 45.9645H199.293L183.404 5.3217C181.95 1.60898 179.279 0.0318864 174.478 0.0318864L174.444 -0.000976562Z" fill="white"/>
<path d="M156.522 0.854858H77.987C68.8927 0.854858 64.0581 5.15898 64.0581 13.2416C64.0581 21.3241 69.0279 25.7268 78.866 25.7268H90.293C98.1702 25.7268 99.3535 30.261 99.3535 32.988C99.3535 37.5221 96.3108 40.2492 91.2396 40.2492H57.8037L60.035 45.9661H90.9353C100.266 45.9661 105.236 41.5634 105.236 33.2837C105.236 25.004 100.266 20.5356 90.0901 20.5356H78.5955C71.0902 20.5356 69.9745 16.1657 69.9745 13.5701C69.9745 9.20026 72.882 6.60465 77.7165 6.60465H128.124V45.999H134.074V6.60465H154.224L156.556 0.887721L156.522 0.854858Z" fill="white"/>
<path d="M242.974 27.3696L244.664 26.9097C253.387 24.5112 254.097 16.2972 254.097 13.833C254.097 5.71753 248.688 0.854858 239.661 0.854858H191.789L194.02 6.57179H239.965C244.935 6.57179 248.147 9.56168 248.147 14.1944C248.147 17.8742 246.017 22.1455 239.965 22.1455H220.83C216.131 22.1455 214.474 23.7883 214.474 28.3882V45.9661H220.357V30.031C220.357 28.4867 221.371 27.5011 222.96 27.5011H236.551L247.741 45.9661H254.131L243.008 27.3696H242.974Z" fill="white"/>
<path d="M25.6896 -0.000976562C20.8551 -0.000976562 18.1504 1.57612 16.6291 5.3217L0.130859 45.9317H6.68958L13.654 28.7809H33.0935L30.8284 22.9325H16.0205L21.9369 8.31158C22.6469 6.73449 23.9316 5.91311 25.6558 5.91311C27.38 5.91311 28.6985 6.76736 29.307 8.37731L34.9529 22.9325L37.218 28.7809L43.8782 45.9317H50.5045L34.6148 5.28884C33.1611 1.57611 30.4903 -0.000976562 25.6896 -0.000976562Z" fill="white"/>
</svg>
