<svg width="181" height="180" viewBox="0 0 181 180" fill="none" xmlns="http://www.w3.org/2000/svg">
<path d="M88.834 64.2507C87.5387 65.5228 86.203 66.8334 85.0696 68.1825C78.5122 75.3137 73.4524 83.5628 70.0928 92.5057C71.55 93.3152 72.9667 94.2403 74.3429 95.204L74.8287 95.5509C74.0596 98.7889 73.7763 102.142 73.9786 105.458C77.5002 105.65 81.0623 105.38 84.5029 104.609C84.7458 104.918 84.9481 105.188 85.1505 105.458C86.2434 106.845 87.2554 108.271 88.1864 109.736C99.3583 105.959 109.478 99.8297 117.857 91.8504L118.059 91.6577C131.417 78.8601 139.593 62.015 141.212 44.0521C141.334 42.8957 140.281 41.8935 139.067 42.0091C120.123 43.5124 102.273 51.376 88.7935 64.2122L88.834 64.2507ZM111.785 80.4405C105.956 80.4405 101.22 75.9305 101.22 70.3797C101.22 64.8289 105.956 60.3189 111.785 60.3189C117.088 60.3189 121.985 64.0966 122.35 70.187C122.512 72.9238 121.257 75.545 119.233 77.4724C117.29 79.3997 114.578 80.4405 111.785 80.4405Z" fill="#38FACC"/>
<path d="M63.6573 115.326C63.293 109.659 64.3859 103.954 66.8146 98.7891C52.8092 104.687 44.1875 118.294 45.2399 132.865C55.7641 133.52 66.1265 129.819 73.5744 122.688C76.7317 119.682 79.2413 116.174 81.0628 112.281C75.5983 114.593 69.648 115.634 63.6573 115.287V115.326Z" fill="#38FACC"/>
<path d="M62.0747 87.9474L62.2366 87.5619C65.5963 78.619 70.656 70.4085 77.2134 63.2388C61.3866 62.3136 46.6931 70.9867 40.5 84.9022C47.867 83.8614 55.3554 84.9022 62.0747 87.9474Z" fill="#38FACC"/>
<path d="M93.5298 116.926L93.125 117.08C96.3228 123.479 97.4157 130.61 96.3227 137.626C110.895 131.728 120.002 117.735 119.071 102.702C111.583 108.908 102.921 113.765 93.5298 116.965V116.926Z" fill="#38FACC"/>
</svg>
